PathFileType	4	(X/Y/Z)	C:\Users\Basilio\Documents\Thesis Gigler\squatting_fais\c3dfiles\044\SJ_pre1\markers_experimental.trc
DataRate	CameraRate	NumFrames	NumMarkers	Units	OrigDataRate	OrigDataStartFrame	OrigNumFrames
200.000000	200.000000	4	63	mm	200.000000	1056	1409
Frame#	Time	FHD			LBHD			RBHD			C7			T10			CLAV			LSHO			LUUPA			LMUPA			LDUPA			LLEP			LMEP			LRAD			LUL			LRFIN			RSHO			RUPA1			RMUPA			RDUPA			RLEP			RMEP			RRAD			RUL			RUFIN			LASI			RASI			USACR			LSACR			RSACR			LTHI1			LTHI2			LTHI3			LTHI4			LLFC			LMFC			LTIB1			LTIB2			LTIB3			LTIB4			LLMAL			LMMAL			LHEE			LMT1			LMT2			LMT5			RTHI			RTHI2			RTHI3			RTHI4			RLFC			RMFC			RTIB1			RTIB2			RTIB3			RTIB4			RLMAL			RMMAL			RHEE			RMT1			RMT2			RMT5			*61			*62			
		X1	Y1	Z1	X2	Y2	Z2	X3	Y3	Z3	X4	Y4	Z4	X5	Y5	Z5	X6	Y6	Z6	X7	Y7	Z7	X8	Y8	Z8	X9	Y9	Z9	X10	Y10	Z10	X11	Y11	Z11	X12	Y12	Z12	X13	Y13	Z13	X14	Y14	Z14	X15	Y15	Z15	X16	Y16	Z16	X17	Y17	Z17	X18	Y18	Z18	X19	Y19	Z19	X20	Y20	Z20	X21	Y21	Z21	X22	Y22	Z22	X23	Y23	Z23	X24	Y24	Z24	X25	Y25	Z25	X26	Y26	Z26	X27	Y27	Z27	X28	Y28	Z28	X29	Y29	Z29	X30	Y30	Z30	X31	Y31	Z31	X32	Y32	Z32	X33	Y33	Z33	X34	Y34	Z34	X35	Y35	Z35	X36	Y36	Z36	X37	Y37	Z37	X38	Y38	Z38	X39	Y39	Z39	X40	Y40	Z40	X41	Y41	Z41	X42	Y42	Z42	X43	Y43	Z43	X44	Y44	Z44	X45	Y45	Z45	X46	Y46	Z46	X47	Y47	Z47	X48	Y48	Z48	X49	Y49	Z49	X50	Y50	Z50	X51	Y51	Z51	X52	Y52	Z52	X53	Y53	Z53	X54	Y54	Z54	X55	Y55	Z55	X56	Y56	Z56	X57	Y57	Z57	X58	Y58	Z58	X59	Y59	Z59	X60	Y60	Z60	X61	Y61	Z61	X62	Y62	Z62	X63	Y63	Z63	

1057	5.28	-223.8093414306641	1604.2568359375	-931.3344726562502	-340.4369506835938	1533.942626953125	-1013.100402832031	-382.1585083007813	1504.268676757813	-852.5496826171877	-397.0036926269532	1376.176147460938	-939.7497558593752	-478.7231750488282	1081.229370117188	-922.3352050781252	-260.5082397460938	1307.795654296875	-928.7860107421877	-288.2262878417969	1341.34716796875	-1108.631103515625	-384.327117919922	1181.712158203125	-1255.67236328125	-360.5252380371094	1137.564331054688	-1245.8125	-404.3110961914064	1122.724731445313	-1286.96875	-414.5493774414064	1060.996215820313	-1296.219604492188	-486.7426147460939	1072.8525390625	-1255.694091796875	-465.7067260742189	842.2026367187502	-1124.0595703125	-419.1164550781251	814.9397583007815	-1167.018432617188	-412.8342895507814	851.606628417969	-1083.18505859375	-320.2128295898438	1340.39794921875	-739.7816772460939	-429.7491760253907	1193.828857421875	-602.4635620117189	-403.0304565429689	1150.9658203125	-600.5609741210939	-448.5139465332032	1137.087646484375	-564.3187866210939	-453.3851623535157	1074.592041015625	-546.2092285156251	-522.6176757812501	1072.388061523438	-599.0147094726564	-454.6360473632814	838.2674560546877	-697.2070312500001	-413.6439819335939	817.8795166015627	-642.3237915039064	-392.1339111328126	847.3771972656252	-737.1173095703126	-378.5285034179688	850.531433105469	-1023.270446777344	-361.0136108398438	838.1675415039065	-819.0361328125002	-512.7821655273439	946.6613769531252	-901.9312133789065	-534.0595703125001	917.878356933594	-925.910583496094	-523.9174194335939	920.6607055664065	-869.9936523437502	-428.8044433593751	669.6759643554689	-1137.334350585938	-360.7164001464844	625.9173583984376	-1164.9296875	-321.0592346191407	650.0720825195314	-1161.875122070313	-353.3994140625001	564.3564453125001	-1164.413940429688	-267.6346130371094	442.5288085937501	-1188.701782226563	-242.8982238769532	426.6911926269532	-1072.691650390625	-304.5273742675782	276.9602050781251	-1114.608032226563	-357.0450134277344	249.1794738769532	-1181.20361328125	-328.3247070312501	233.1936187744141	-1146.78125	-380.5110778808594	174.9609680175782	-1112.578979492188	-487.031219482422	97.17919921875003	-1156.029907226563	-461.9931945800782	101.3815841674805	-1070.497680664063	-553.1940917968751	53.71169662475587	-1105.243774414063	-335.4190979003907	60.1483840942383	-1104.303466796875	-340.9079895019532	61.97724533081056	-1150.603515625	-380.4176025390626	41.62203216552735	-1195.727416992188	-371.6335144042969	608.1023559570314	-704.6712646484376	-307.7641601562501	584.5883789062501	-695.2053222656251	-280.7542114257813	602.0164794921876	-701.1951904296876	-286.2528686523438	502.4647827148439	-710.7586059570314	-250.1915588378907	415.1343383789064	-710.1498413085939	-253.0430297851563	407.361053466797	-827.7435302734377	-265.0549926757813	285.6661376953126	-742.7901611328126	-364.1577148437501	266.0126647949219	-696.6310424804689	-333.7348022460938	238.1432189941407	-715.1872558593751	-357.4400024414063	193.0093688964844	-744.0983886718751	-500.7235412597657	100.9503707885742	-722.2360839843751	-476.6727294921876	101.2030334472657	-809.1988525390627	-564.8184814453126	55.53771209716798	-772.455505371094	-351.6229248046876	60.20408248901369	-774.189636230469	-348.0583190917969	57.91948318481447	-736.1828613281251	-388.5465698242189	41.74877929687501	-685.4614257812501	nan	nan	nan	nan	nan	nan	
1058	5.285	-222.7890167236329	1599.966430664063	-932.0100708007815	-339.2903442382813	1529.677368164063	-1013.555358886719	-381.2027893066407	1501.091064453125	-852.9348754882815	-396.0815429687501	1372.660522460938	-939.5244750976565	-479.3908691406251	1078.413940429688	-921.9261474609377	-259.5501403808594	1303.370727539063	-929.2737426757815	-287.6569824218751	1337.249877929688	-1108.421142578125	-384.1655578613282	1178.99365234375	-1257.026489257813	-361.0586547851563	1134.72265625	-1246.609130859375	-403.8089904785157	1120.252319335938	-1288.6806640625	-415.8887023925782	1058.691772460938	-1297.49755859375	-488.0000915527345	1071.677490234375	-1257.820068359375	-467.966522216797	840.8152465820315	-1124.425170898438	-421.6770935058595	813.2226562500002	-1167.834106445313	-415.1590881347657	849.421813964844	-1083.115844726563	-318.2664794921876	1336.2802734375	-739.8218383789064	-429.2690734863282	1192.069091796875	-601.6197509765626	-402.7207336425782	1148.643920898438	-598.9347534179689	-448.3109436035157	1135.632446289063	-563.0915527343751	-453.9401245117189	1073.200561523438	-544.8043823242189	-523.0468750000001	1071.447631835938	-597.3939819335939	-455.9510803222657	837.5756835937502	-697.0569458007814	-414.8486328125001	817.164978027344	-642.4719848632814	-393.6333618164064	845.9649658203127	-737.7248535156251	-380.7815246582032	847.5532836914065	-1023.511596679688	-362.4991760253907	835.7163085937502	-818.9874267578127	-514.7680664062501	944.042419433594	-901.9761962890627	-535.8635864257814	915.1370239257815	-925.9263916015627	-525.6732177734376	917.992126464844	-870.1716918945315	-429.9200744628907	666.1026000976564	-1137.381713867188	-361.3312988281251	623.1281127929689	-1165.278564453125	-322.0293273925782	647.8078613281251	-1162.386962890625	-353.4435729980469	561.8444213867189	-1164.354125976563	-266.9899902343751	442.2504272460939	-1188.900024414063	-242.2738952636719	426.1438598632814	-1072.996826171875	-303.0932922363282	276.0267944335938	-1115.097900390625	-356.7728881835938	249.4688873291016	-1181.205322265625	-327.2819519042969	233.3568572998047	-1147.503784179688	-379.7658691406251	175.24169921875	-1112.811279296875	-486.9554443359376	97.50679779052737	-1155.492309570313	-461.4944152832032	101.7312240600586	-1070.138305664063	-552.9030761718751	53.98188400268556	-1104.59521484375	-335.1854858398438	60.15843963623048	-1104.421508789063	-340.7558593750001	61.9492530822754	-1150.53173828125	-380.4236450195313	41.78152084350587	-1195.514404296875	-372.8343200683594	604.5792846679689	-705.3228759765626	-309.2893676757813	581.4884643554689	-695.7040405273439	-282.3261413574219	599.1978149414064	-700.8264160156251	-287.1031494140626	499.6498413085939	-712.0856933593751	-250.8494415283204	414.2307739257814	-710.4076538085939	-252.8369140625001	406.3910522460939	-827.9453735351565	-264.8298034667969	285.0735168457032	-742.4107055664064	-364.3792724609376	266.2215576171876	-696.4688720703126	-333.9392700195313	238.2188415527344	-714.8453369140626	-357.7593688964844	193.1294403076172	-743.6701049804689	-500.5565490722657	100.3276672363282	-722.2943115234376	-476.7209472656251	100.864486694336	-809.2563476562502	-565.0694580078126	55.13171768188478	-772.452087402344	-351.7829589843751	60.21907043457033	-774.2526855468752	-348.0671997070313	57.90278625488283	-736.1240844726564	-388.4704895019532	41.85044860839844	-685.3762207031251	nan	nan	nan	nan	nan	nan	
1059	5.29	-221.3695526123047	1596.03759765625	-933.0366821289065	-338.9543151855469	1525.15966796875	-1013.882141113281	-379.7636413574219	1497.261352539063	-853.080261230469	-395.0042114257814	1369.08251953125	-939.2332763671877	-480.1726379394532	1075.78515625	-921.5800781250002	-258.8211059570313	1299.134033203125	-929.4451293945315	-287.1349487304688	1333.363403320313	-1108.396118164063	-383.6437377929688	1176.339477539063	-1258.301635742188	-361.5501708984376	1131.710205078125	-1247.093872070313	-404.4104614257814	1117.13623046875	-1289.17333984375	-416.977996826172	1056.627075195313	-1298.477783203125	-489.3025512695314	1070.73974609375	-1259.817626953125	-469.9426879882814	839.2927246093752	-1125.067260742188	-424.3114318847657	811.5916748046877	-1168.4462890625	-417.7312927246095	847.2139282226565	-1083.346069335938	-316.1022949218751	1332.56689453125	-739.9934692382814	-428.1642456054689	1190.341674804688	-600.4486083984376	-402.2824707031251	1146.53369140625	-597.6117553710939	-447.9045715332032	1134.364013671875	-561.7157592773439	-453.8370971679689	1072.02392578125	-543.1384887695314	-523.3404541015626	1070.744384765625	-595.4936523437501	-457.038055419922	836.9453735351565	-696.8551025390626	-416.0288696289064	816.0310668945315	-642.2603149414064	-395.6454467773439	844.5401000976565	-738.1685791015626	-382.8373718261719	844.6007080078127	-1023.78271484375	-365.1718444824219	833.2572021484377	-819.203796386719	-516.3427124023439	941.4256591796877	-902.2329711914065	-537.7493896484376	912.5692138671877	-925.9614868164065	-527.6912231445314	915.484558105469	-870.0759277343752	-431.0532531738282	663.2160034179689	-1137.39794921875	-362.2380981445313	621.3693847656251	-1165.29736328125	-322.9104919433594	646.0839843750001	-1162.6279296875	-353.6479187011719	559.9653320312501	-1164.41748046875	-265.5053405761719	441.8267822265626	-1189.165161132813	-240.4677429199219	425.7236328125001	-1073.350219726563	-302.7836608886719	276.4206542968751	-1115.33642578125	-356.3093566894532	250.3374328613282	-1181.070922851563	-327.1149291992188	233.3230285644532	-1147.732421875	-379.3354492187501	175.2730560302735	-1112.771240234375	-486.7539062500001	97.93418121337893	-1155.125732421875	-461.077850341797	101.861198425293	-1069.652587890625	-552.6117553710939	54.38399887084962	-1103.978515625	-334.8935241699219	60.02690887451173	-1104.308837890625	-341.0675659179688	61.3580894470215	-1150.620239257813	-380.4435729980469	41.77581024169923	-1195.320434570313	-374.2445068359376	601.9568481445314	-705.6719970703126	-310.4845581054688	579.1199951171876	-695.8044433593751	-283.5522460937501	597.2138061523439	-701.0402832031251	-287.8883972167969	497.7816162109376	-713.1146240234376	-251.0093078613282	413.767547607422	-710.7316894531251	-252.452377319336	406.3177795410157	-828.399597167969	-264.8310852050782	285.0093078613282	-742.3394775390626	-364.5236206054688	266.4474182128907	-696.3366699218751	-334.1882019042969	238.2632904052735	-714.5339965820314	-358.0748596191407	192.9373168945313	-743.0128784179689	-500.7017822265626	100.0600128173828	-722.1323242187501	-476.9185791015626	100.7485885620117	-809.2171630859377	-565.2126464843751	54.86732864379884	-772.4147949218752	-351.9014282226563	60.31200027465822	-774.236999511719	-348.1379089355469	57.9507179260254	-736.0548706054689	-388.5101318359376	41.88518142700196	-685.3821411132814	nan	nan	nan	nan	nan	nan	
1060	5.295	-220.3628540039063	1592.20849609375	-933.819274902344	-337.0887145996094	1522.085815429688	-1014.2431640625	-379.0449829101563	1494.131225585938	-853.2413330078127	-394.2921142578126	1365.931518554688	-938.981628417969	-480.8374938964845	1073.36328125	-921.274108886719	-258.2729187011719	1295.510864257813	-929.6477661132815	-286.7854309082032	1330.12353515625	-1108.416870117188	-382.8074951171876	1173.906372070313	-1259.457153320313	-362.2793884277344	1128.771728515625	-1247.35791015625	-404.1256713867189	1114.841552734375	-1290.279663085938	-417.6977539062501	1054.473999023438	-1299.376708984375	-490.8138122558595	1069.727661132813	-1261.746704101563	-473.0557556152345	838.716003417969	-1125.759399414063	-427.0800170898439	810.0609130859377	-1169.446899414063	-419.807098388672	845.0608520507815	-1083.914672851563	-314.5610351562501	1329.246459960938	-740.2322998046876	-427.2097778320314	1188.678833007813	-599.5638427734376	-401.4478759765626	1145.010498046875	-597.0043334960939	-446.9972534179689	1132.902709960938	-560.3419189453126	-453.3731384277345	1070.783813476563	-541.7261962890626	-523.5609130859376	1070.187866210938	-593.3369140625001	-458.4083251953126	836.3088378906252	-696.4687500000001	-417.6465759277345	815.1051025390627	-641.8419799804689	-397.2438964843751	842.9624633789065	-738.3789672851564	-385.3455810546876	841.4581298828127	-1023.912292480469	-367.8235778808594	830.1058349609377	-819.8837890625002	-518.0197143554689	938.8403930664065	-902.3284912109377	-539.6660156250001	910.2534790039065	-926.1682739257815	-529.6876220703126	913.2386474609377	-870.2738037109377	-432.4332885742189	661.2730102539064	-1137.263427734375	-363.1039123535157	619.9620361328126	-1165.24609375	-324.1672363281251	645.2990722656251	-1162.620239257813	-353.9330749511719	558.5404052734376	-1164.46728515625	-264.2413940429688	441.8132934570314	-1189.404541015625	-238.6776733398438	425.9417114257814	-1073.35595703125	-302.0494079589844	276.3266296386719	-1115.419189453125	-356.1632995605469	250.6727905273438	-1180.91162109375	-326.9770812988282	233.5774078369141	-1147.757202148438	-378.9720458984376	175.4610748291016	-1112.652221679688	-486.6509094238282	98.55644226074222	-1154.479125976563	-460.6519165039064	102.244125366211	-1069.281860351563	-552.2557373046876	54.69119262695314	-1103.388305664063	-334.6901855468751	60.08093643188478	-1104.260864257813	-340.8227844238282	61.43624496459962	-1150.531372070313	-380.3873291015626	41.9011573791504	-1195.203979492188	-375.4955444335938	600.1958007812501	-705.7244873046876	-311.4523315429688	577.8512573242189	-695.7064819335939	-284.8759765625001	595.9229125976564	-701.1506347656251	-288.3148193359376	496.7706298828126	-713.3497314453126	-250.8307037353516	413.345184326172	-710.8648071289064	-251.8774871826172	406.7184448242189	-828.812683105469	-264.8625793457032	284.7647705078126	-742.4544067382814	-364.4684753417969	266.5373840332032	-696.2141113281251	-334.2299194335938	238.1885528564454	-714.4284667968751	-358.3925781250001	192.9325561523438	-742.6400146484376	-500.8743896484376	99.86136627197268	-721.8687133789064	-477.2268981933595	100.7260894775391	-808.9506835937502	-565.7321777343751	54.6546096801758	-771.985534667969	-352.0168762207032	60.35736083984376	-774.1368408203127	-348.2508544921876	58.01076889038087	-736.0280761718751	-388.495819091797	41.89830398559571	-685.2149658203126	nan	nan	nan	nan	nan	nan	
